<?xml version="1.0" encoding="UTF-8" standalone="no"?>
<svg
   xmlns:dc="http://purl.org/dc/elements/1.1/"
   xmlns:cc="http://creativecommons.org/ns#"
   xmlns:rdf="http://www.w3.org/1999/02/22-rdf-syntax-ns#"
   xmlns:svg="http://www.w3.org/2000/svg"
   xmlns="http://www.w3.org/2000/svg"
   xmlns:sodipodi="http://sodipodi.sourceforge.net/DTD/sodipodi-0.dtd"
   xmlns:inkscape="http://www.inkscape.org/namespaces/inkscape"
   viewBox="0 0 1600 1600"
   height="1600"
   width="1600"
   xml:space="preserve"
   id="svg2"
   version="1.1"
   sodipodi:docname="icon2.svg"
   inkscape:version="0.92.4 (5da689c313, 2019-01-14)"><sodipodi:namedview
     pagecolor="#ffffff"
     bordercolor="#666666"
     borderopacity="1"
     objecttolerance="10"
     gridtolerance="10"
     guidetolerance="10"
     inkscape:pageopacity="0"
     inkscape:pageshadow="2"
     inkscape:window-width="1920"
     inkscape:window-height="1017"
     id="namedview96"
     showgrid="false"
     inkscape:zoom="0.125"
     inkscape:cx="-1749.904"
     inkscape:cy="-68.081529"
     inkscape:window-x="-8"
     inkscape:window-y="-8"
     inkscape:window-maximized="1"
     inkscape:current-layer="g10" /><metadata
     id="metadata8"><rdf:RDF><cc:Work
         rdf:about=""><dc:format>image/svg+xml</dc:format><dc:type
           rdf:resource="http://purl.org/dc/dcmitype/StillImage" /><dc:title></dc:title></cc:Work></rdf:RDF></metadata><defs
     id="defs6"><clipPath
       id="clipPath20"
       clipPathUnits="userSpaceOnUse"><path
         id="path18"
         d="M 0,1200 H 1200 V 0 H 0 Z" /></clipPath></defs><g
     transform="matrix(1.3333333,0,0,-1.3333333,0,1600)"
     id="g10"><path
       id="path12"
       style="fill:#ffffff;fill-opacity:0;fill-rule:nonzero;stroke:none"
       d="M 0,0 H 1200 V 1200 H 0 Z" /><g
       id="g14"
       transform="matrix(1.5460619,0,0,1.5462257,-327.6228,-333.46347)"><g
         clip-path="url(#clipPath20)"
         id="g16"><g
           transform="translate(988.0215,603.6857)"
           id="g22"><path
             id="path24"
             style="fill:#9cb7da;fill-opacity:1;fill-rule:nonzero;stroke:none"
             d="m 0,0 c 0,-214.298 -173.723,-388.021 -388.021,-388.021 -214.299,0 -388.022,173.723 -388.022,388.021 0,214.298 173.723,388.021 388.022,388.021 C -173.723,388.021 0,214.298 0,0"
             inkscape:connector-curvature="0" /></g><path
           id="path26"
           style="fill:#c35364;fill-opacity:1;fill-rule:nonzero;stroke:none"
           d="M 897.132,448.899 H 302.868 v 121.84 h 594.264 z"
           inkscape:connector-curvature="0" /><g
           transform="translate(861.3576,456.544)"
           id="g28"><path
             id="path30"
             style="fill:#d1d3d4;fill-opacity:1;fill-rule:nonzero;stroke:none"
             d="m 0,0 h -132.052 c -4.95,0 -9,4.05 -9,9 v 88.073 c 0,4.95 4.05,9 9,9 H 0 c 4.95,0 9,-4.05 9,-9 V 9 C 9,4.05 4.95,0 0,0"
             inkscape:connector-curvature="0" /></g><g
           transform="translate(921.8011,348.5602)"
           id="g32"><path
             id="path34"
             style="fill:#d1d3d4;fill-opacity:1;fill-rule:nonzero;stroke:none"
             d="m 0,0 v 17.201 c 0,22.181 8.821,42.39 23.106,57.336 H -600.6 c -33.112,0 -60.203,-27.091 -60.203,-60.203 V 2.867 c 0,-33.112 27.091,-60.204 60.203,-60.204 H 23.106 C 8.821,-42.39 0,-22.181 0,0"
             inkscape:connector-curvature="0" /></g><g
           transform="translate(951.9028,291.2237)"
           id="g36"><path
             id="path38"
             style="fill:#3b6f99;fill-opacity:1;fill-rule:nonzero;stroke:none"
             d="m 0,0 h -630.702 c -26.082,0 -47.302,21.22 -47.302,47.303 v 37.268 c 0,26.083 21.22,47.303 47.302,47.303 H 0 v 25.801 h -630.702 c -40.309,0 -73.104,-32.794 -73.104,-73.104 V 47.303 c 0,-40.31 32.795,-73.104 73.104,-73.104 H 0 Z"
             inkscape:connector-curvature="0" /></g><g
           transform="translate(416.8879,236.1756)"
           id="g40"><path
             id="path42"
             style="fill:#c35364;fill-opacity:1;fill-rule:nonzero;stroke:none"
             d="M 0,0 -30.852,23.045 -61.703,0 V 120.985 H 0 Z"
             inkscape:connector-curvature="0" /></g><path
           id="path44"
           style="fill:#939598;fill-opacity:1;fill-rule:nonzero;stroke:none"
           d="m 452.27,309.21 h -35.382 v 2.416 h 35.382 z"
           inkscape:connector-curvature="0" /><path
           id="path46"
           style="fill:#939598;fill-opacity:1;fill-rule:nonzero;stroke:none"
           d="M 537.994,357.526 H 325.403 v 2.416 h 212.591 z"
           inkscape:connector-curvature="0" /><path
           id="path48"
           style="fill:#939598;fill-opacity:1;fill-rule:nonzero;stroke:none"
           d="M 911.639,326.121 H 699.048 v 2.416 h 212.591 z"
           inkscape:connector-curvature="0" /><path
           id="path50"
           style="fill:#939598;fill-opacity:1;fill-rule:nonzero;stroke:none"
           d="M 675.695,391.348 H 555.71 v 2.416 h 119.985 z"
           inkscape:connector-curvature="0" /><g
           transform="translate(365.0877,631.4293)"
           id="g52"><path
             id="path54"
             style="fill:#d1d3d4;fill-opacity:1;fill-rule:nonzero;stroke:none"
             d="m 0,0 v 12.557 c 0,16.192 -6.439,30.944 -16.867,41.855 h 455.3 c 24.172,0 43.948,-19.777 43.948,-43.948 V 2.093 c 0,-24.172 -19.776,-43.948 -43.948,-43.948 h -455.3 C -6.439,-30.944 0,-16.192 0,0"
             inkscape:connector-curvature="0" /></g><g
           transform="translate(343.1137,589.5741)"
           id="g56"><path
             id="path58"
             style="fill:#231f20;fill-opacity:1;fill-rule:nonzero;stroke:none"
             d="m 0,0 h 460.407 c 19.04,0 34.531,15.49 34.531,34.531 v 27.205 c 0,19.041 -15.491,34.531 -34.531,34.531 H 0 v 18.835 h 460.407 c 29.426,0 53.366,-23.94 53.366,-53.366 V 34.531 c 0,-29.426 -23.94,-53.366 -53.366,-53.366 H 0 Z"
             inkscape:connector-curvature="0" /></g><path
           id="path60"
           style="fill:#939598;fill-opacity:1;fill-rule:nonzero;stroke:none"
           d="m 693.722,608.99 h 19.79 v 1.351 h -19.79 z"
           inkscape:connector-curvature="0" /><path
           id="path62"
           style="fill:#939598;fill-opacity:1;fill-rule:nonzero;stroke:none"
           d="M 645.775,636.013 H 764.68 v 1.351 H 645.775 Z"
           inkscape:connector-curvature="0" /><path
           id="path64"
           style="fill:#939598;fill-opacity:1;fill-rule:nonzero;stroke:none"
           d="m 436.791,618.448 h 118.905 v 1.351 H 436.791 Z"
           inkscape:connector-curvature="0" /><path
           id="path66"
           style="fill:#939598;fill-opacity:1;fill-rule:nonzero;stroke:none"
           d="m 568.757,654.93 h 67.109 v 1.351 h -67.109 z"
           inkscape:connector-curvature="0" /><g
           transform="translate(760.9007,747.049)"
           id="g68"><path
             id="path70"
             style="fill:#d1d3d4;fill-opacity:1;fill-rule:nonzero;stroke:none"
             d="m 0,0 v 8.601 c 0,11.09 4.41,21.194 11.553,28.668 H -300.3 c -16.556,0 -30.102,-13.546 -30.102,-30.102 V 1.433 c 0,-16.555 13.546,-30.101 30.102,-30.101 H 11.553 C 4.41,-21.195 0,-11.091 0,0"
             inkscape:connector-curvature="0" /></g><g
           transform="translate(775.9515,718.3807)"
           id="g72"><path
             id="path74"
             style="fill:#0a9679;fill-opacity:1;fill-rule:nonzero;stroke:none"
             d="m 0,0 h -315.351 c -13.041,0 -23.651,10.61 -23.651,23.651 v 18.635 c 0,13.041 10.61,23.651 23.651,23.651 H 0 v 12.901 h -315.351 c -20.155,0 -36.552,-16.397 -36.552,-36.552 V 23.651 c 0,-20.155 16.397,-36.552 36.552,-36.552 H 0 Z"
             inkscape:connector-curvature="0" /></g><g
           transform="translate(501.0945,698.5823)"
           id="g76"><path
             id="path78"
             style="fill:#3b6f99;fill-opacity:1;fill-rule:nonzero;stroke:none"
             d="M 0,0 -14.185,10.596 -28.37,0 V 55.627 H 0 Z"
             inkscape:connector-curvature="0" /></g><path
           id="path80"
           style="fill:#939598;fill-opacity:1;fill-rule:nonzero;stroke:none"
           d="m 529.491,732.774 h -15.832 v 1.081 h 15.832 z"
           inkscape:connector-curvature="0" /><path
           id="path82"
           style="fill:#939598;fill-opacity:1;fill-rule:nonzero;stroke:none"
           d="m 567.849,754.393 h -95.124 v 1.081 h 95.124 z"
           inkscape:connector-curvature="0" /><path
           id="path84"
           style="fill:#939598;fill-opacity:1;fill-rule:nonzero;stroke:none"
           d="m 735.036,740.341 h -95.124 v 1.081 h 95.124 z"
           inkscape:connector-curvature="0" /><path
           id="path86"
           style="fill:#939598;fill-opacity:1;fill-rule:nonzero;stroke:none"
           d="m 629.463,769.526 h -53.687 v 1.081 h 53.687 z"
           inkscape:connector-curvature="0" /></g></g></g></svg>